<svg width="21" height="20" viewBox="0 0 21 20" fill="none" xmlns="http://www.w3.org/2000/svg">
<path fill-rule="evenodd" clip-rule="evenodd" d="M11.8032 2.50223C8.72806 -0.424061 4.16985 -0.845318 1.64203 1.56472C-0.887097 3.97351 -0.444795 8.31482 2.62507 11.2424C3.44406 12.0224 4.38772 12.6186 5.38389 13.0461C5.71069 11.2374 6.6478 9.49859 8.07051 8.07107C7.59934 7.91107 7.11635 7.77606 6.61236 7.64481C3.6278 6.8648 2.14471 4.49351 1.79822 1.71347C2.0848 2.04168 2.34572 2.38595 2.60587 2.72919C3.11062 3.39517 3.61248 4.05732 4.29322 4.59101C5.35219 5.42146 6.51457 5.74204 7.78623 6.09275C7.83533 6.10629 7.88459 6.11988 7.93402 6.13354C8.53644 6.29979 9.06012 6.54605 9.54048 6.83355C10.8031 5.95479 12.2271 5.36978 13.6971 5.12852C13.2495 4.17976 12.6222 3.28225 11.8032 2.50223ZM6.60317 13.7412C6.79873 11.9299 7.72009 10.1586 9.19661 8.75233C12.2717 5.82603 16.8299 5.40353 19.3578 7.81481C21.8869 10.2236 21.4459 14.5649 18.3721 17.4925C16.8956 18.8987 15.0358 19.7762 13.134 19.9637C12.8807 19.9875 12.63 20 12.3846 20C10.7493 20 9.28849 19.4537 8.21226 18.4287C6.97329 17.25 6.40105 15.5849 6.60317 13.7412ZM11.101 15.2274C12.109 14.4949 13.1996 14.2049 14.3861 13.8962C17.3707 13.1161 18.8525 10.7449 19.2003 7.96482C18.9161 8.2912 18.6571 8.63313 18.3988 8.97403L18.3988 8.97404C17.8926 9.64238 17.3893 10.3068 16.7053 10.8424C15.643 11.6742 14.478 11.9953 13.2006 12.3473L13.0645 12.3849C10.1442 13.1924 8.7005 15.5437 8.36713 18.28C8.65479 17.9508 8.91829 17.6091 9.18042 17.2692L9.18048 17.2691C9.74954 16.5312 10.3121 15.8017 11.101 15.2274Z" fill="#0E8784"/>
</svg>
